# xmcd CD database file
#
# Track frame offsets:
#	150
#	15835
#	31285
#
# Disc length: 635 seconds
#
# Revision: 0
# Processed by: cddbd v1.5.2PL0 Copyright (c) Steve Scherf et al.
# Submitted via: CDex 1.51
#
DISCID=12027903
DTITLE=Danny Montana and the Bar Association - Coming Soon to Your Saloon
DYEAR=2006
DGENRE=Country
TTITLE0=Danny Montana and the Bar Association - Callin' Caroline Master Demo
TTITLE1=Danny Montana and the Bar Association - Pourin Whiskey Master Demo
TTITLE2=Danny Montana and the Bar Association - Stand Back Master Demo
EXTD=YEAR: 2006
EXTT0=
EXTT1=
EXTT2=
PLAYORDER=
